<?xml version="1.0" encoding="UTF-8"?>
<svg id="Capa_2" data-name="Capa 2" xmlns="http://www.w3.org/2000/svg" viewBox="0 0 2743.75 542.05">
  <defs>
    <style>
      .cls-1 {
        fill: #00aae2;
      }

      .cls-1, .cls-2 {
        fill-rule: evenodd;
      }
    </style>
  </defs>
  <g id="Capa_1-2" data-name="Capa 1" image-rendering="optimizeQuality" shape-rendering="geometricPrecision" text-rendering="geometricPrecision">
    <rect width="710.55" height="542.05" rx="21.97" ry="21.97"/>
    <path class="cls-2" d="M810.37,0h1871.7c34.06,0,61.68,9.83,61.68,21.97v498.11c0,12.13-27.61,21.97-61.68,21.97H810.37c-34.06,0-61.68-9.83-61.68-21.97V21.97c0-12.13,27.61-21.97,61.68-21.97Z"/>
    <path class="cls-1" d="M218.27,184.79c35.03,0,63.44,28.4,63.44,63.44,0,6.38-.95,12.54-2.7,18.34h360.47v56.52h-27.75v74.53h-28.42v-38.74h-27.73v38.74h-29.57v-74.53h-246.64c1.53,5.45,2.35,11.2,2.35,17.13,0,35.03-28.4,63.44-63.44,63.44-29.59,0-54.44-20.26-61.46-47.66-5.68,1.67-11.69,2.57-17.91,2.57-35.03,0-63.44-28.4-63.44-63.44s28.4-63.44,63.44-63.44c6.07,0,11.95.85,17.51,2.45,6.41-28.25,31.67-49.35,61.86-49.35h0ZM196.49,321.75c-1.5,3.23-3.25,6.31-5.25,9.22-.99,2.9-1.53,6.02-1.53,9.25,0,15.77,12.79,28.56,28.56,28.56s28.56-12.79,28.56-28.56-12.79-28.56-28.56-28.56c-8.73,0-16.53,3.92-21.78,10.08h0ZM160.68,313.6c1.5-3.22,3.25-6.3,5.25-9.21.99-2.9,1.54-6.02,1.54-9.26,0-15.77-12.79-28.56-28.56-28.56s-28.56,12.79-28.56,28.56,12.79,28.56,28.56,28.56c8.73,0,16.54-3.92,21.78-10.09h0ZM218.27,219.66c15.77,0,28.56,12.79,28.56,28.56s-12.79,28.56-28.56,28.56-28.56-12.79-28.56-28.56,12.79-28.56,28.56-28.56Z"/>
    <path class="cls-1" d="M1121.65,91.52c52.96,0,100.4,23.33,132.44,60.15l-37.85,37.85c-21.75-26.34-54.68-43.14-91.53-43.14-65.49,0-118.57,53.02-118.57,118.42s53.08,118.42,118.57,118.42c37.32,0,70.61-17.23,92.34-44.15l37.46,37.46c-32.04,37.11-79.66,60.65-132.86,60.65-96.46,0-174.66-77.38-174.66-172.84s78.2-172.83,174.66-172.83h0ZM1402.06,183.41c71.87,0,130.13,56.34,130.13,125.84s-58.26,125.83-130.13,125.83-130.13-56.34-130.13-125.83,58.26-125.84,130.13-125.84ZM1402.06,234.97c42.42,0,76.81,33.25,76.81,74.27s-34.39,74.27-76.81,74.27-76.81-33.25-76.81-74.27,34.39-74.27,76.81-74.27ZM1683.87,183.41c71.87,0,130.13,56.34,130.13,125.84s-58.26,125.83-130.13,125.83c-29.36,0-56.45-9.41-78.22-25.27v132.24h-51.91v-244.29h.55c6-64.11,61.72-114.35,129.58-114.35ZM1683.87,234.97c42.42,0,76.81,33.25,76.81,74.27s-34.39,74.27-76.81,74.27-76.81-33.25-76.81-74.27,34.39-74.27,76.81-74.27ZM1967.53,183.41c71.87,0,130.13,56.34,130.13,125.84s-58.26,125.83-130.13,125.83c-29.35,0-56.44-9.41-78.22-25.27v132.24h-51.91v-244.29h.55c6-64.11,61.72-114.35,129.58-114.35ZM1967.53,234.97c42.42,0,76.81,33.25,76.81,74.27s-34.39,74.27-76.81,74.27-76.8-33.25-76.8-74.27,34.39-74.27,76.8-74.27ZM2241,183.41c76.08,0,114.3,65.37,114.3,126.41l-1.01,11.83h-.54c-.03-.29-.06-.32-.09,0h-188.46c6,36.64,27.21,64.62,76.87,64.62,26.08,0,49.16-12.67,63.29-32.13l34.66,36.73c-23.87,27.05-43.27,44.21-99.03,44.21-78.65,0-127.53-56.34-127.53-125.83s51.45-125.84,127.53-125.84ZM2301.61,284.83c-5.13-23.29-23.63-52.61-59.54-52.61s-63.56,22.04-73.88,52.61h133.42ZM2377.24,321.66V97.09h56.91v224.57c0,30.89,37.94,62.53,68.42,62.53v52.43c-60.96,0-125.33-58.27-125.33-114.96ZM2548.63,384.19c4.51,0,8.9,1.16,13.2,3.47,4.29,2.31,7.64,5.62,10.04,9.93,2.39,4.31,3.59,8.81,3.59,13.47s-1.18,9.09-3.55,13.35c-2.36,4.28-5.66,7.59-9.93,9.95-4.27,2.37-8.72,3.55-13.36,3.55s-9.11-1.18-13.38-3.55c-4.26-2.36-7.58-5.67-9.95-9.95-2.37-4.26-3.56-8.72-3.56-13.35s1.2-9.16,3.61-13.47c2.41-4.3,5.77-7.62,10.06-9.93,4.3-2.32,8.7-3.47,13.22-3.47ZM2548.63,388.64c-3.78,0-7.46.97-11.03,2.9-3.57,1.93-6.37,4.7-8.38,8.3-2.02,3.6-3.03,7.34-3.03,11.23s.99,7.58,2.98,11.13c1.98,3.55,4.75,6.32,8.31,8.3,3.56,1.98,7.28,2.98,11.15,2.98s7.58-.99,11.14-2.98c3.56-1.98,6.33-4.75,8.3-8.3,1.97-3.55,2.95-7.25,2.95-11.13s-1.01-7.63-3.01-11.23c-2.01-3.59-4.8-6.37-8.38-8.3s-7.25-2.9-10.99-2.9ZM2536.83,425.88v-28.86h9.94c3.4,0,5.85.27,7.37.8,1.53.53,2.73,1.46,3.64,2.8.9,1.32,1.35,2.73,1.35,4.23,0,2.1-.75,3.95-2.27,5.5-1.51,1.57-3.51,2.44-6.01,2.63,1.02.43,1.85.94,2.46,1.53,1.17,1.13,2.59,3.04,4.27,5.72l3.53,5.65h-5.66l-2.58-4.54c-2.02-3.58-3.66-5.83-4.9-6.73-.85-.66-2.09-.98-3.73-.97h-2.74v12.24h-4.66ZM2541.5,409.63h5.66c2.71,0,4.55-.4,5.54-1.2.98-.8,1.48-1.87,1.48-3.18,0-.85-.24-1.62-.72-2.28-.47-.68-1.13-1.18-1.97-1.51-.85-.33-2.41-.5-4.69-.5h-5.31v8.67Z"/>
  </g>
</svg>