<?xml version="1.0" encoding="UTF-8"?>
<svg id="Capa_2" data-name="Capa 2" xmlns="http://www.w3.org/2000/svg" viewBox="0 0 512 101.92">
  <g id="Layer_1" data-name="Layer 1">
    <g>
      <path d="M0,.08h7.72v67.05c0,2.1,0,4.07,1.54,5.61.98,1.54,3.09.98,4.63,1.54h38.86v7.72H10.81c-3.09,0-6.17-.56-8.14-3.09-2.1-2.1-2.1-4.63-2.1-7.15C0,47.77,0,24.21,0,.08Z"/>
      <path d="M10.24.08h7.72v57.79c0,1.54,0,3.65,1.54,4.63.98.98,3.09.98,4.63.98h28.62v7.72H17.4c-2.1,0-4.07,0-5.19-.98-1.54-.98-1.54-3.09-1.54-4.63-.43-22.02-.43-43.49-.43-65.51Z"/>
      <path d="M20.48.08h7.72v49.66c0,1.54.56,3.65,2.1,3.65,7.15.56,14.87,0,22.02,0v7.72h-27.63c-2.52.56-4.07-2.1-4.07-4.63-.14-18.95-.14-37.46-.14-56.4Z"/>
      <path d="M30.72.08h7.72c0,14.31-.56,28.2,0,42.5,4.63.98,9.26.56,13.89.56v7.72h-17.96c-1.54,0-3.65-.56-3.65-2.52V.08Z"/>
      <path d="M40.96.08h45.59c3.09-.56,5.05,2.1,6.17,4.63.98,3.09.56,6.17.56,8.7v67.61h-7.72V12.43c0-2.1-.56-4.07-2.52-5.05-1.54-.56-3.09-.56-4.63-.56h-37.87c.42-2.11.42-4.21.42-6.74Z"/>
      <path d="M118.81.08h9.68v65.51c-.56,3.09,2.1,6.17,5.61,6.17h24.13v9.26h-31.28c-2.52,0-6.17-.56-7.15-3.65-.56-2.52-.56-5.05-.56-7.15-.43-23.01-.43-46.57-.43-70.14Z"/>
      <path d="M161.74.08h9.68v8.7h-9.68c0-2.53,0-5.61,0-8.7Z"/>
      <path d="M502.32.08h9.68v81.36h-9.68V.08Z"/>
      <path d="M40.96,9.76h37.31c2.52,0,5.05,2.1,4.63,4.63v67.05c-2.52,0-5.19,0-7.15-.56-.56-20.48,0-40.4-.56-60.88,0-2.1-2.1-3.09-4.07-3.09h-30.16c0-1.96,0-4.48,0-7.15Z"/>
      <path d="M40.96,20h28.2c2.52,0,4.07,2.1,3.65,4.63v56.81h-7.72V31.78c0-.98,0-2.1-.56-3.65-.98-.98-3.09-.98-4.07-.98h-19.5c0-1.96,0-4.48,0-7.15Z"/>
      <path d="M161.74,20.56h9.68v60.88h-9.68c0-20.48,0-40.4,0-60.88Z"/>
      <path d="M175.06,20.56h11.22c6.59,16.41,12.76,32.26,19.5,48.68,6.59-16.41,12.76-32.26,19.5-48.68h11.22c-7.72,19.5-15.29,39.42-23.57,58.92-.56.56-.56,2.1-1.54,2.1h-11.78c-8.14-20.62-16.27-40.54-24.55-61.02Z"/>
      <path d="M301.59,34.45c0-6.59,5.05-12.76,11.78-13.33,4.07-.56,8.14,0,12.34,0v9.68c-3.65,0-6.59-.56-10.24,0-2.52.56-4.07,3.65-4.07,6.17v44.61h-9.68c-.13-15.43-.13-31.28-.13-47.13Z"/>
      <path d="M252.35,20.56c11.22-5.05,25.11-2.52,33.81,5.61,7.15,6.17,10.8,15.85,10.8,25.11h-54.85c.98,8.14,6.59,16.41,14.31,19.5,9.26,3.65,19.92.56,26.09-7.15,1.54-2.1,2.52-4.63,3.65-6.59h9.26c-2.1,6.59-5.61,13.33-11.22,17.39-7.15,5.61-16.83,7.72-25.67,6.17-9.26-1.54-17.39-7.72-21.46-15.43-4.07-6.59-5.05-14.87-3.65-22.58,2.66-9.68,9.82-17.96,18.93-22.03ZM253.48,30.24c-5.19,2.52-8.14,7.72-10.8,12.76h43.48c-1.54-4.07-3.65-7.72-7.15-10.24-6.6-6.59-17.4-7.57-25.53-2.52Z"/>
      <path d="M495.59,38.94c-4.63-13.89-20.48-23.57-34.79-21.04-9.26.98-17.39,7.15-22.58,14.87-6.59-10.8-19.5-16.83-31.7-14.87-9.26.98-17.96,7.15-23,14.87-5.05-7.72-13.33-13.33-22.58-14.87-11.22-2.1-23.57,3.09-30.72,12.76-4.07,5.61-6.17,12.76-6.17,19.5v51.76h9.68v-29.18c6.17,5.61,14.31,9.26,23,9.26,10.8,0,21.04-6.17,26.65-14.87,6.17,10.24,18.38,16.41,30.16,14.87,9.68-.98,18.94-6.59,24.55-14.87,3.09,5.19,7.72,9.26,12.76,11.78,10.24,5.05,23.57,4.63,32.82-2.52,11.92-8.14,17.11-24.13,11.92-37.45ZM360.5,71.76c-11.22,2.52-23.57-5.61-26.09-17.39-3.09-11.78,5.05-24.55,16.83-26.65,11.78-3.09,24.55,5.19,26.65,16.83,3.51,11.92-5.18,25.67-17.39,27.21ZM414.65,71.76c-11.22,2.52-23.57-5.61-25.67-16.83-3.09-11.78,5.05-24.55,16.83-27.07,11.78-3.09,24.55,5.19,27.07,16.83,2.81,12.2-5.89,25.53-18.23,27.07ZM468.94,71.76c-11.78,2.1-24.13-6.59-25.67-17.96-2.1-10.8,5.05-23,15.85-25.67,12.34-4.07,26.09,4.63,28.2,17.39,3.22,11.93-6.04,24.7-18.38,26.24Z"/>
      <path d="M40.96,30.24c7.15,0,13.89-.56,21.04.56.56,1.54.98,3.65.98,5.61v45.59h-7.72v-43.06c-4.63-.98-9.26-.56-13.89-.56-.41-2.95-.41-5.47-.41-8.14Z"/>
    </g>
  </g>
</svg>