<?xml version="1.0" encoding="UTF-8"?>
<svg id="Capa_2" xmlns="http://www.w3.org/2000/svg" version="1.1" viewBox="0 0 616.7 147.3">
  <!-- Generator: Adobe Illustrator 29.1.0, SVG Export Plug-In . SVG Version: 2.1.0 Build 142)  -->
  <g id="Layer_1">
    <g>
      <path d="M440.1,143v-52.7s-.8-11.8,7.6-11.8,8.4,10.3,8.4,10.3v54.2h38v-71.4s-.8-32.8-46.5-32.8-49.5,41.2-49.5,41.2v63h42Z"/>
      <rect x="163.1" y="40" width="43" height="103"/>
      <rect x="222.1" width="43" height="143"/>
      <path d="M0,143v-68.6c-.6,0,1.1-37,41.7-37s32.4,13.7,32.4,13.7c0,0,10.5-12.8,33.3-12.8s42.4,14.5,42.6,41.2v62.4h-41v-61.9c.1,0,.1-6.5-5.8-6.5s-7.1,6.8-7.2,6.8v62.6h-42v-62c-.3,0-.6-7.1-7.4-7.1s-6.5,7.1-6.6,7.1v62H0Z"/>
      <path d="M383.1,92v-3h0c-1.6-29.7-27.1-53.1-57.6-51.4-27.9,1.5-50.5,24.4-51.5,52.4-1.2,31.1,23.7,56.7,54.6,56.7s15.7-1.8,22.6-4.9v.3h32v-49.9h0c0,0,0,0,0,0ZM328.6,108.1c-8.7,0-15.8-7.1-15.8-15.8s7.1-15.8,15.8-15.8,15.8,7.1,15.8,15.8-7.1,15.8-15.8,15.8Z"/>
      <path d="M561.7,37.3c-30.4,0-55,24.6-55,55s24.6,55,55,55,55-24.6,55-55-24.6-55-55-55ZM561.7,108.1c-8.7,0-15.8-7.1-15.8-15.8s7.1-15.8,15.8-15.8,15.8,7.1,15.8,15.8-7.1,15.8-15.8,15.8Z"/>
    </g>
  </g>
</svg>