<?xml version="1.0" encoding="UTF-8"?>
<svg id="Capa_2" xmlns="http://www.w3.org/2000/svg" version="1.1" viewBox="0 0 182.6 30.9">
  <!-- Generator: Adobe Illustrator 29.1.0, SVG Export Plug-In . SVG Version: 2.1.0 Build 142)  -->
  <g id="Capa_1-2">
    <g>
      <g>
        <path d="M181.7,27.2c.4.4.6.8.6,1.4s-.2,1-.6,1.4c-.4.4-.8.6-1.4.6s-1-.2-1.4-.6-.6-.8-.6-1.4.2-1,.6-1.4c.4-.4.8-.6,1.4-.6s1,.2,1.4.6h0ZM181.9,27c-.4-.4-1-.7-1.6-.7s-1.1.2-1.6.7-.7,1-.7,1.6.2,1.2.6,1.6c.4.4,1,.7,1.6.7s1.2-.2,1.6-.7.7-1,.7-1.6-.2-1.1-.7-1.6h0Z"/>
        <path d="M180.6,28.5c0,0-.2,0-.4,0h-.4v-.9h.4c.2,0,.4,0,.5,0s.2.2.2.4,0,.3-.2.4ZM179.4,29.8h.4v-1h.3c.2,0,.4,0,.5,0,.1,0,.2.3.2.6v.3h0c0,0,.4,0,.4,0h0s0-.1,0-.2v-.4c0-.1,0-.2-.1-.4s-.2-.2-.4-.2c.1,0,.3,0,.4-.1.2-.1.2-.3.2-.5s-.1-.5-.4-.6c-.1,0-.4,0-.7,0h-.9v2.5h0Z"/>
      </g>
      <g>
        <path d="M167.1.8c8.1,0,14.7,6.6,14.7,14.7s-6.6,14.7-14.7,14.7H15.4C7.3,30.1.8,23.5.8,15.4S7.3.8,15.4.8h151.7M167.1,0H15.4C6.9,0,0,6.9,0,15.4s6.9,15.4,15.4,15.4h151.7c8.5,0,15.4-6.9,15.4-15.4s-6.9-15.4-15.4-15.4h0Z"/>
        <g>
          <circle cx="15.4" cy="15.4" r="10.3"/>
          <path d="M40.5,7.7h1.4v10.1c0,1.5.3,2.7,1,3.4.7.7,1.8,1.1,3.2,1.1s2.5-.4,3.2-1.1c.7-.7,1-1.9,1-3.4V7.7h1.4v9.6c0,2.1-.5,3.6-1.4,4.7s-2.3,1.5-4.2,1.5-3.3-.5-4.2-1.5-1.4-2.6-1.4-4.7V7.7h0Z"/>
          <path d="M53.3,23.1V7.1l10.9,12.9V7.7h1.3v15.9l-10.9-12.9v12.5h-1.3Z"/>
          <path d="M71,23.1v-14.1h-4.2v-1.3h9.9v1.3h-4.3v14.1h-1.4Z"/>
          <path d="M92.5,15.5c0,1.1-.2,2.1-.6,3.1s-1,1.9-1.8,2.6c-.8.8-1.7,1.4-2.7,1.8s-2.1.6-3.2.6-2.2-.2-3.2-.6c-1-.4-1.9-1-2.7-1.8-.8-.8-1.4-1.7-1.8-2.6-.4-1-.6-2-.6-3.1s.2-2.1.6-3.1c.4-1,1-1.9,1.8-2.6.8-.8,1.7-1.3,2.7-1.7,1-.4,2.1-.6,3.2-.6s2.2.2,3.2.6,1.9,1,2.7,1.7c.8.8,1.4,1.7,1.8,2.6s.6,2,.6,3.1h0ZM84.2,22.3c.9,0,1.8-.2,2.6-.5.8-.3,1.6-.8,2.2-1.5.6-.6,1.1-1.4,1.5-2.2.3-.8.5-1.7.5-2.6s-.2-1.8-.5-2.6c-.3-.8-.8-1.6-1.5-2.2-.6-.6-1.4-1.1-2.2-1.5-.8-.3-1.7-.5-2.6-.5s-1.8.2-2.6.5c-.8.3-1.5.8-2.2,1.5-.7.7-1.1,1.4-1.5,2.2-.3.8-.5,1.7-.5,2.6s.2,1.8.5,2.6c.3.8.8,1.6,1.5,2.2.7.6,1.4,1.1,2.2,1.5.8.3,1.7.5,2.6.5h0Z"/>
          <path d="M111.1,23.1V7.7h1.4v14.1h5.3v1.3h-6.7Z"/>
          <path d="M118.3,23.1l6.8-16,6.5,16h-1.5l-2-5.2h-6.3l-2,5.2h-1.4ZM122.2,16.7h5.4l-2.6-6.7s-2.7,6.7-2.7,6.7Z"/>
          <path d="M132.2,23.1V7.1l10.9,12.9V7.7h1.3v15.9l-10.9-12.9v12.5h-1.3,0Z"/>
          <path d="M159.6,10.5c-.8-.7-1.6-1.1-2.4-1.5-.8-.3-1.6-.5-2.5-.5-2,0-3.6.6-4.9,1.9-1.2,1.3-1.9,2.9-1.9,4.9s.1,1.9.5,2.8c.3.8.8,1.5,1.4,2.2.6.6,1.3,1.1,2.1,1.4.8.3,1.6.5,2.6.5s1.8-.1,2.6-.5c.8-.3,1.6-.8,2.4-1.3v1.6c-.8.5-1.6.8-2.4,1.1s-1.7.4-2.5.4-2.2-.2-3.2-.6-1.9-1-2.6-1.7c-.8-.7-1.3-1.6-1.7-2.6s-.6-2.1-.6-3.2.2-2.2.6-3.2c.4-1,1-1.9,1.7-2.6.7-.7,1.6-1.3,2.6-1.7,1-.4,2.1-.6,3.2-.6s1.9.1,2.7.4c.8.3,1.6.7,2.3,1.2v1.6s0,0,0,0Z"/>
          <path d="M177.4,15.5c0,1.1-.2,2.1-.6,3.1-.4,1-1,1.9-1.8,2.6-.8.8-1.7,1.4-2.7,1.8s-2.1.6-3.2.6-2.2-.2-3.2-.6c-1-.4-1.9-1-2.7-1.8-.8-.8-1.4-1.7-1.8-2.6-.4-1-.6-2-.6-3.1s.2-2.1.6-3.1c.4-1,1-1.9,1.8-2.6.8-.8,1.7-1.3,2.6-1.7,1-.4,2.1-.6,3.2-.6s2.2.2,3.2.6c1,.4,1.9,1,2.6,1.7.8.8,1.4,1.7,1.8,2.6s.6,2,.6,3.1h0ZM169.1,22.3c.9,0,1.8-.2,2.6-.5.8-.3,1.6-.8,2.2-1.5.6-.6,1.1-1.4,1.5-2.2s.5-1.7.5-2.6-.2-1.8-.5-2.6-.8-1.6-1.5-2.2c-.6-.6-1.4-1.1-2.2-1.5-.8-.3-1.7-.5-2.6-.5s-1.8.2-2.6.5c-.8.3-1.5.8-2.2,1.5-.6.7-1.1,1.4-1.5,2.2s-.5,1.7-.5,2.6.2,1.8.5,2.6.8,1.6,1.5,2.2c.6.6,1.4,1.1,2.2,1.5s1.7.5,2.6.5h0Z"/>
          <path d="M102.9,23.1c1.5,0,2.6,0,3.2-.3.6-.2,1.2-.5,1.6-.9.4-.4.8-.9,1-1.5.2-.6.3-1.2.3-1.9s-.3-1.8-.8-2.5c-.6-.6-1.3-1-2.3-1.2.8-.2,1.3-.6,1.8-1.1.4-.6.6-1.3.6-2.1s-.1-1.3-.4-1.9c-.3-.6-.7-1-1.2-1.4-.4-.3-.8-.5-1.3-.6-.5-.1-1.4-.2-2.5-.2h-2.7s-1.2,0-1.2,0v.6l1.2.6v14.2h2.7ZM101.6,8.9h1.8c1.3,0,2.2.2,2.7.6.5.4.8,1.2.8,2.2s-.3,1.7-.8,2.1c-.5.4-1.4.6-2.7.6h-1.8v-5.6h0ZM107.3,20.3c-.2.5-.5.8-.8,1-.3.2-.6.4-1,.4-.4,0-1.1.1-2.1.1h-1.8v-6.1h2.1c.8,0,1.3,0,1.7.1.4,0,.7.2.9.3.4.2.7.6.9,1s.3,1,.3,1.6,0,1-.3,1.4h0Z"/>
          <path d="M38.6,9.9c-.3-.6-.6-1.1-1.1-1.4-.4-.3-.8-.5-1.4-.6s-1.3-.2-2.5-.2h-2.8s-1.2,0-1.2,0v.6l1.2.6v14.2h1.4v-6.9h1.6c1.8,0,3.1-.3,3.9-1,.8-.7,1.2-1.8,1.2-3.2s-.1-1.4-.4-2h0ZM36.6,14.3c-.6.4-1.7.6-3.4.6h-1v-6.1h1c1.1,0,1.9,0,2.4.2.5.1.8.4,1.1.6.3.3.5.6.6,1,.1.4.2.8.2,1.3,0,1.1-.3,1.8-.9,2.3Z"/>
        </g>
      </g>
    </g>
  </g>
</svg>