<?xml version="1.0" encoding="UTF-8"?>
<svg id="Capa_2" data-name="Capa 2" xmlns="http://www.w3.org/2000/svg" viewBox="0 0 409.2 127.35">
  <g id="Layer_1" data-name="Layer 1">
    <path d="M409.06,98.05l-2.1,1.4c-5.85,4.6-15.9,8.05-30.1,10.4-19.15,3.15-40.9,2.85-65.2-.95l-30.75-2.35c-16.4-.75-25.2-.55-26.4.65-1,1.05,2.75-4.25,11.25-16,9.75-15.55,16.25-30.9,19.6-45.95,5.3-23.85,13.3-35.8,23.95-35.8,3.35.05,5.4,1.8,6.25,5.2.95,3.35.35,7.2-1.7,11.45,9.9-2.15,14.1-7,12.65-14.65-.65-3.1-2.3-5.7-5-7.85-2.9-2.35-6.35-3.55-10.4-3.6-12.35-.2-23.3,5-32.75,15.6-7.2,7.95-13.1,18.35-17.7,31.15-3.95,12.85-7.95,24.1-12,33.7-7.65,18.45-14.85,29.3-21.7,32.45l1.55,2.65c6.5-1.05,17.45-1,32.8.25,4.85.4,17.95,2.55,39.3,6.45,18.75,3.45,32.95,5.15,42.65,5.1,18.65-.15,34.65-4.2,48.1-12.1,8.45-4.95,14.05-9.8,16.85-14.65l.65-.95c.35-.75.45-1.3.2-1.6ZM295.31,56.4c-4.55,4.85-7.85,10.05-9.95,15.6-1,2.65-1.55,4.9-1.7,6.65v4.45c.45,3.4,1.8,6.3,4.05,8.7,3.6,3.85,8.2,5.75,13.75,5.75l8.8-.85c6.5-1.65,12.5-5.3,18.05-11.05l1.8-1.9.3,1.4c2.45,8.4,8.3,12.6,17.5,12.6l8.9-.85c6.5-1.7,12.5-5.4,18.05-11.15,4.95-5.15,7.4-10.3,7.4-15.45l-.45-.55c-1.55,3.4-4.45,6.7-8.8,9.85-5.35,4.1-11.05,6.2-17.05,6.3-5.65.15-9.05-1.5-10.15-4.9v-5.1c10.5-1.35,18.9-4,25.2-7.95,6.65-4.1,9.8-8.95,9.55-14.6-.2-4.05-2.55-6.6-7.1-7.65l-8.25-.65-3.65.55c-15.65,3.95-25.75,13.8-30.2,29.45l-.65.85c-6.2,6.35-13.3,9.65-21.3,9.85-5.65.15-9-1.45-10.15-4.85v-5.1c10.55-1.35,18.95-4,25.2-7.95,6.65-4.1,9.85-9,9.55-14.65-.2-3.55-2.2-5.95-5.95-7.3l-4.55-.95c-11.45-.35-20.85,3.45-28.2,11.45ZM354.46,57.9c4.05-4.45,7.5-6.9,10.4-7.35l3,.65c1.1,1.25,1.15,3.15.1,5.65-4.4,8.85-11.5,13.5-21.35,13.95,1.15-4.1,3.75-8.4,7.85-12.9ZM321.31,56.7c-4.4,8.85-11.5,13.55-21.35,14,1.25-4.15,3.9-8.5,8-13,4-4.45,7.45-6.9,10.35-7.35l2.9.65c1.15,1.4,1.15,3.3.1,5.7ZM109.17,12.85c8.6-.35,13.35,3.3,14.2,11,.7,6.75-.8,11.8-4.45,15.25v.65l8.8-3.05c6-3.35,9.3-8.15,9.95-14.45.7-6.9-3.1-12.15-11.35-15.8-7.5-3.25-15.25-4.1-23.3-2.65-6.25.75-12.4,3.05-18.55,6.9-12.25,7.75-17.95,19.55-17.2,35.4,2.7,18.25,3.85,32.6,3.5,43.15-.25,7.8-3,14.3-8.25,19.55-5.25,5.05-11.4,7.55-18.55,7.4-15.9-.35-24.3-6.9-25.15-19.6-.55-7.65,2.45-13.85,9.1-18.65,7.8-5.55,18.05-6.4,30.75-2.65.75.35.8.1.25-.75-1.3-1.65-3.4-3.2-6.25-4.7-5.75-3.05-12.65-4.15-20.7-3.35-10.75.9-19.05,4.8-25,11.75C1.87,84.25-.43,90.8.07,97.95c.5,6.8,3.65,12.75,9.45,17.85,7.4,6.55,17.7,9.8,30.95,9.75,15.1-.1,28.2-5.2,39.3-15.3,11.35-10.3,16.75-22.6,16.25-36.9-.3-7.05-.85-13.35-1.6-18.85l-1.7-9.85c-.75-5.35-1-9.95-.75-13.8.8-11.65,6.55-17.65,17.2-18ZM235.01,88.3l-.35-.6-.75.2c-1.1,1.2-2.35,1.95-3.8,2.2-1.35.15-2.15-.2-2.45-1.05-.65-1.25.45-6,3.3-14.2,3.6-10.35,7.4-19.95,11.45-28.85-6.35.35-11.3.5-14.75.35l-1.25,2.65c-2.85-3.35-6.8-4.7-11.9-4.05-5.7.65-11,3.2-15.9,7.75l3.4-9.1-6.75-.55c-5.25.7-9.7,3.8-13.4,9.35l.1-2.05c.3-1.65.9-3.1,1.85-4.45-5.85.45-10.7.55-14.45.35-.15,3.6-2.05,9.8-5.7,18.55l-6.8,16.65c-3.25,6.7-6.4,8.8-9.45,6.35-1.9-.8-1.4-5.2,1.5-13.15,3.75-10.25,7.55-19.9,11.45-28.85-6.45.35-11.35.45-14.75.3l-1.25,2.65c-2.85-3.3-6.8-4.65-11.9-4-8.4,1-15.35,5.25-20.85,12.8l-5,8.3c-3.25,6.5-4.65,12.25-4.15,17.25.95,8.85,5.95,13.25,15.05,13.25,6.1.15,11.1-2.7,15.05-8.55l1.5,4.1c1.7,2.75,4.45,4.15,8.25,4.15,4.6,0,8.4-1.75,11.45-5.3-.35,1.85-1,3.35-2,4.55l15.8-.1c4.4-13.85,8.3-24.35,11.65-31.6l1.1-2c.95-1.65,2.15-2.95,3.6-3.9,3.45-2.35,7.15-2.9,11-1.7-1.95,2.4-3.85,5.35-5.7,8.9-3.7,6.95-5.25,13.1-4.7,18.45.95,8.85,5.9,13.25,14.95,13.25,6.25.15,11.25-2.75,15.05-8.6l1.2,4.55c1.65,2.95,4.35,4.45,8.15,4.45,5.8,0,9.5-2.9,11.15-8.7ZM140.62,58.55c-3.6,10.6-6.85,18.35-9.75,23.2-3.75,5.65-7.7,7.8-11.95,6.45-1.25-.2-2.1-1.2-2.55-3.05-1-3.7.5-9.5,4.45-17.4,3.95-8,7.85-13.3,11.65-15.9,1.9-1.25,3.4-1.75,4.55-1.5l2.8,1.2c1.6,1.4,1.85,3.75.8,7ZM222.46,58.75c-3.55,11.05-6.8,18.75-9.75,23.1-3.65,5.75-7.6,7.9-11.85,6.55-1.25-.2-2.1-1.2-2.55-3.05-1-3.65.45-9.45,4.35-17.4,4.05-8.15,7.95-13.45,11.75-16,1.95-1.25,3.4-1.75,4.45-1.4l2.8,1.2c1.65,1.4,1.95,3.75.8,7Z"/>
  </g>
</svg>