<?xml version="1.0" encoding="UTF-8"?>
<svg id="Capa_2" data-name="Capa 2" xmlns="http://www.w3.org/2000/svg" viewBox="0 0 390.99 53.21">
  <g id="svg2">
    <g id="_d11818ff" data-name="#d11818ff">
      <path id="path6" d="M151.84.08c6.26.19,12.54.12,18.8,0-.18,10.08-.3,20.17-.12,30.25.08,4.85-.19,9.71.15,14.56,1.76.75,3.69.55,5.55.59.06,2.11.07,4.23,0,6.36-8.14,0-16.28,0-24.42.06-.08-2.1-.12-4.2.09-6.29,1.63-.11,3.25-.19,4.86-.4.81-2.25.5-4.66.53-6.99,0-8.06,0-16.12,0-24.18-.02-2.43.17-4.88-.31-7.28-1.68-.46-3.41-.28-5.12-.14-.16-2.17-.16-4.35-.01-6.52Z"/>
      <path id="path8" d="M343.05.01c5.93.11,11.86.04,17.79-.01.16,6.82.05,13.65-.2,20.47,2.05-1.18,3.31-3.35,5.46-4.4,4.31-2.14,9.52-2.26,14.01-.64,2.35.84,4.02,2.98,4.72,5.32,1.32,4.39.68,9.02.86,13.53.15,3.24-.25,6.5.12,9.72.92,1.9,3.46,1.02,5.15,1.24.05,2.1.06,4.2-.05,6.3-7.51.13-15.03-.06-22.54.1-.15-2.07-.12-4.15-.01-6.22,1.18-.15,2.4-.13,3.53-.53,1-.51.9-1.78.97-2.73.03-4.89-.1-9.78-.09-14.67.02-2.08-.39-4.6-2.36-5.74-2.09-.85-4.67-.81-6.55.53-1.41,1.04-1.93,2.82-2.23,4.47-.62,4.17.06,8.39-.36,12.57-.08,1.59-.3,3.25.25,4.78.8,1.46,2.75,1.05,4.12,1.33.03,2.04.04,4.09-.03,6.14-7.53.02-15.06-.02-22.59.06-.11-2.06.03-4.13.13-6.19,1.37-.15,2.78-.07,4.12-.42,1-.28,1.18-1.41,1.17-2.29.1-11.24-.15-22.49.16-33.71-.06-.92-.18-2.09-1.14-2.51-1.46-.3-2.98-.13-4.45-.19-.04-2.1-.05-4.21.03-6.31h0Z"/>
      <path id="path10" d="M.05.38c7.88.08,15.75-.19,23.63,0-.04,2.17-.08,4.34-.16,6.5-1.52.2-3.44.12-4.36,1.59-.27,1.22.21,2.44.46,3.62,2.35,8.74,4.76,17.46,7.2,26.17,2.03-4.91,3.31-10.11,5-15.14.69-2.96,2.6-5.84,1.81-8.97-.39-1.82-.93-3.66-2.01-5.2-1.06-1.46-2.91-1.87-4.56-2.32-.2-2.08-.17-4.17-.13-6.25,8.17-.11,16.33-.12,24.5-.04-.05,2.08-.18,4.16-.3,6.24-1.68.4-4.3-.23-5,1.85-.25,1.74.33,3.46.68,5.14,1.34,5.34,2.75,10.66,4,16.02.73,2.89,1.25,5.85,2.37,8.63,2.53-8.48,4.66-17.06,6.97-25.6.35-1.46.87-2.99.48-4.49-1.29-1.4-3.34-1.2-5.07-1.31-.21-2.15-.17-4.31-.24-6.47,6.45-.11,12.9-.02,19.35-.11.05,2.19.08,4.39-.03,6.59-1.24.19-2.6.2-3.61,1.04-1.55,1.29-2.18,3.28-2.78,5.12-3.67,12.97-6.8,26.1-10.44,39.09-4.65.02-9.3.05-13.95-.01-1.98-7.14-3.87-14.32-6.09-21.39-2.32,7.06-4.18,14.29-6.38,21.39-4.85.02-9.71.12-14.56-.05-3.04-11.87-6.46-23.64-9.67-35.47-.75-2.49-1.28-5.13-2.78-7.31C3.4,7.76,1.62,7.28.05,6.71-.01,4.6-.02,2.49.05.38Z"/>
      <path id="path12" d="M322.6,1.19c2.59-.02,5.19,0,7.79-.02.09,4.73-.01,9.45-.08,14.18,3.13.04,6.27-.05,9.4-.04,0,2.11.02,4.22-.05,6.34-3.1.04-6.19-.1-9.27-.28-.04,6.37.03,12.74-.2,19.11-.06,1.51-.03,3.12.68,4.49,1.19,1.72,4.29,1.38,4.89-.71.94-3.19.18-6.59.57-9.86,2.1.02,4.2.05,6.3.05-.13,4.59.42,9.47-1.93,13.64-1.53,3.34-5.3,4.69-8.72,4.97-2.94.29-5.99-.01-8.76-1.05-2.61-1.01-4.25-3.55-4.91-6.18-.96-3.96-.67-8.06-.71-12.1.02-4.07-.12-8.14.19-12.19-1.69-.03-3.39-.04-5.07-.08-.11-1.87-.2-3.76-.1-5.63,2.41-.48,4.85-1.54,6.36-3.56,2.5-3.12,3.31-7.17,3.63-11.06h0Z"/>
      <path id="path14" d="M83.07,14.41c6.21-.81,12.9.06,18.12,3.73,3.99,2.73,6.45,7.37,6.9,12.14.48,4.22.16,8.63-1.52,12.57-2.28,4.93-7.17,8.26-12.34,9.52-4.98,1.18-10.25,1.11-15.18-.25-5-1.17-9.05-5.05-11.28-9.57-1.8-3.6-1.93-7.74-1.61-11.68.51-5.87,4.12-11.32,9.26-14.17,2.38-1.24,5.01-1.95,7.65-2.31M84.26,21.21c-1.65.62-2.69,2.24-3.23,3.85-1.13,3.53-.89,7.28-.91,10.92.06,2.94.25,6.11,1.95,8.61,1.63,2.29,4.83,2.17,7.29,1.74,2.11-.34,3.58-2.2,4.1-4.18,1.02-3.64.85-7.49.87-11.23-.33-2.79-.28-5.94-2.13-8.25-1.88-2.38-5.31-2.04-7.95-1.46Z"/>
      <path id="path16" d="M128.06,14.42c4.38-.58,8.91-.4,13.15.9,6.02,1.95,11.15,7.09,12.23,13.44.82,4.89.68,10.28-1.84,14.68-2.13,3.37-5.05,6.48-8.86,7.9-6.19,2.23-13.1,2.41-19.37.37-5.71-1.97-10.6-6.96-11.56-13.05-.8-4.8-.67-9.97,1.46-14.43,2.86-5.51,8.66-9.18,14.8-9.81M130.29,21.07c-2.27.45-3.71,2.56-4.2,4.69-.92,3.89-.71,7.94-.59,11.91.3,2.73.6,5.99,3.03,7.73,2.29,1.49,5.44,1.47,7.82.2,2.77-1.82,3.07-5.49,3.36-8.49.1-4.47.36-9.16-1.36-13.37-1.41-3.02-5.2-3.29-8.06-2.67Z"/>
      <path id="path18" d="M251.74,14.09c5.65-.84,11.63,0,16.69,2.73,3.91,2.08,6.57,6.02,7.86,10.19,1.66,6.15,1.14,13.26-2.86,18.43-2.71,4.28-7.74,6.21-12.53,7.05-6.06.97-12.58.25-17.96-2.85-4.82-2.76-7.4-8.31-7.89-13.68-.66-5.75.87-11.83,4.87-16.12,2.95-3.44,7.49-4.97,11.82-5.74M253.41,20.92c-2.39.5-3.48,3.04-3.85,5.21-.74,4.36-.8,8.84-.29,13.23.34,2.22.92,4.79,2.93,6.1,2.24,1.05,5,1.08,7.29.14,2.88-1.5,3.19-5.1,3.47-7.96.22-4.74.45-9.68-1.13-14.22-1.43-3.16-5.52-3.17-8.42-2.5h0Z"/>
      <path id="path20" d="M293.55,18.71c2-1.6,3.86-3.59,6.48-4.15,3.57-.82,8.12-.14,10.2,3.22,1.66,3.08,1.99,7.33-.29,10.2-1.99,2.41-5.76,2.77-8.42,1.33-2.43-1.28-3.27-4.74-1.78-7.02.78-1.03,2.02-1.58,3.05-2.33-1.71-1.27-4.41-.92-5.72.76-2.4,2.57-2.8,6.27-2.85,9.62.02,3.95,0,7.9,0,11.84.03,1.06,0,2.59,1.3,2.9,1.75.33,3.56.18,5.34.15,0,2.14,0,4.27,0,6.4-8.53-.06-17.06-.07-25.6-.02.02-2.11-.04-4.23.18-6.33,1.93-.17,5.53.74,5.81-2.03.04-6.55.11-13.1-.04-19.64-.18-2.98-3.86-1.9-5.84-2.24-.11-2.02-.3-4.05-.21-6.09,6.12.12,12.25.07,18.37.06-.01,1.12-.03,2.24.01,3.36h0Z"/>
      <path id="path22" d="M196.43,15.35c7.1-.04,14.2.15,21.29-.02,0,2.01-.02,4.03-.22,6.03-1.38.08-2.76.18-4.05.7.05.94.07,1.88.29,2.81,1.21,4.73,2.78,9.37,3.75,14.16.24,1.27.65,2.5,1.32,3.62,1.29-2.73,1.71-5.76,2.66-8.61,1.01-3.12,1.95-6.25,3.07-9.34.38-.98.36-2.05.37-3.09-1.36-.23-2.72-.31-4.09-.36.02-1.98.01-3.95.01-5.93,5.58.07,11.18.08,16.76-.06.03,1.95,0,3.91-.21,5.85-2.33.05-5.08.7-5.83,3.25-2.93,9.03-5.28,18.24-8.18,27.28-4.47.07-8.94-.07-13.41.04-1.1-3.08-1.95-6.23-2.96-9.33-.99-2.94-1.33-6.08-2.71-8.88-1.23,2.5-1.54,5.3-2.33,7.95-1.02,3.49-2.11,6.97-3.28,10.42-4.65-.3-9.29-.1-13.93-.02-2.16-7.89-4.3-15.78-6.38-23.69-.53-1.78-.85-3.72-2.04-5.22-1.15-1.24-2.95-1.35-4.49-1.75-.09-1.87-.08-3.75-.08-5.63,7.18-.14,14.37-.13,21.56-.11-.05,1.99-.05,3.98-.17,5.96-1.21.25-2.85-.21-3.69.92-.29,2.33.85,4.56,1.32,6.8,1.33,4.43,2.18,8.99,3.49,13.42,1.09-1,1.33-2.49,1.7-3.84,1.06-4.83,3-9.4,4.34-14.16.3-1,.16-2.04.1-3.05-1.36-.05-2.72-.03-4.08-.03-.12-2.03-.1-4.07.1-6.09h0Z"/>
    </g>
  </g>
</svg>