<svg xmlns="http://www.w3.org/2000/svg" viewBox="0 0 157.96 214"><defs><style>.cls-1{fill:#1d1d1b;}</style></defs><g id="Capa_2" data-name="Capa 2"><g id="Capa_2-2" data-name="Capa 2"><path class="cls-1" d="M157.74,114.54C154.12,93.44,133.06,79.2,112,83.42a39,39,0,0,0-14.86,6.26A50.32,50.32,0,0,1,93.49,81a76.08,76.08,0,0,0,36-15.95,67,67,0,0,0,24.45-47.95c-6.43-1.41-13-3.36-19.68-2.91-23.77.75-44.62,19.19-48.7,42.58A50.89,50.89,0,0,0,85.4,75.1a75.89,75.89,0,0,1-13-.18c2.9-18-3.09-37.25-19-49.81A51.81,51.81,0,0,0,6,16l-1.74.54C5.18,45,25.53,70.06,52.61,78.21a90.53,90.53,0,0,0,12,2.79,51.73,51.73,0,0,1-3.5,8.47,38.76,38.76,0,0,0-24.42-7C18.35,83.15,2.27,97.78,0,116l1.21.45a47.87,47.87,0,0,0,11.85,3.47,49.66,49.66,0,0,0,35.76-8A54.1,54.1,0,0,0,62.31,99.06a33.35,33.35,0,0,1,8,14.82,106.58,106.58,0,0,1,5.23,32c0,.23,0,.46,0,.7,0,19,.09,48.73.28,67.46h6.87c.18-18.8.24-48.48.28-67.45a123.4,123.4,0,0,1,2.94-24c.83-3.91,1.72-7.88,2.92-11.68a33.57,33.57,0,0,1,5.36-10c.5-.65,1-1.26,1.55-1.86,8.69,11.72,21.82,20,37,21.21A51.57,51.57,0,0,0,158,115.68l-.2-1.15ZM91.37,69.08c-1.69-25.23,18.08-48,43.21-50.31,5.25-.63,10.52.16,15.74.95a68.37,68.37,0,0,1-25,40.12,72.36,72.36,0,0,1-33.4,14.52A46.79,46.79,0,0,1,91.37,69.08ZM14.64,35.57A73.83,73.83,0,0,1,9.21,19.83c21.94-4.47,44.78,7,53.69,27.74a46.71,46.71,0,0,1,3.36,26.5C44.65,70.15,24.89,56.92,14.63,35.56ZM13.56,116a46.94,46.94,0,0,1-9.85-2.07c3.91-14.66,18-25.79,33.17-25.74A33.53,33.53,0,0,1,57.79,95C48.23,108.87,32,118.05,13.56,116Zm68.71-7.39q-1.68,5-3,10.13c-.68-2.49-1.46-5-2.35-7.39A38.71,38.71,0,0,0,66,93.39a54.9,54.9,0,0,0,4.89-11.61,89.26,89.26,0,0,0,16.1,0,57,57,0,0,0,5.19,11.91,39.65,39.65,0,0,0-9.9,14.86Zm50.9,7.28c-13.51-1.79-25.33-9.93-32.92-21,14.31-11,36.12-8.91,47.91,6a33.61,33.61,0,0,1,6.55,12.65C147.67,115.73,140.33,116.85,133.17,115.84Z"/><rect class="cls-1" x="68.06" y="4.51" width="21.8" height="21.8" transform="translate(12.23 60.35) rotate(-45)"/></g></g></svg>