<svg xmlns="http://www.w3.org/2000/svg" width="512" height="320"><g><path d="M 326.781 0 C 341.828 0 354.023 12.194 354.023 27.242 C 354.023 42.289 341.828 54.483 326.781 54.483 C 311.734 54.483 299.54 42.289 299.54 27.242 C 299.54 12.194 311.734 0 326.781 0" fill="rgb(255, 255, 255)"></path><path d="M 312.906 315.173 C 309.271 301.494 294.459 259.557 289.573 245.565 L 334.715 171.11 C 343.079 198.507 352.498 226.961 360.159 256.352 C 383.687 196.944 413 142.891 436.998 83.327 C 473.072 83.757 475.144 83.796 513.642 83.327 C 473.424 159.814 434.184 236.067 396.546 315.212 C 363.051 314.665 341.75 314.978 312.906 315.212 Z" fill="rgb(255, 255, 255)"></path><path d="M 0 84.265 L 63.551 84.265 L 118.698 203.549 L 199.993 80.357 L 354.257 80.357 L 215.275 310.952 L 147.034 311.499 L 252.443 138.983 L 225.28 138.983 L 114.516 307.005 Z" fill="rgb(255, 255, 255)"></path></g></svg>